<svg xmlns="http://www.w3.org/2000/svg" xmlns:xlink="http://www.w3.org/1999/xlink" width="30" height="30" viewBox="0 0 30 30">
  <defs>
    <clipPath id="clip-path">
      <rect id="Rectangle_161" data-name="Rectangle 161" width="30" height="30" transform="translate(950 574)" fill="#fff" stroke="#707070" stroke-width="1"/>
    </clipPath>
  </defs>
  <g id="Mask_Group_19" data-name="Mask Group 19" transform="translate(-950 -574)" clip-path="url(#clip-path)">
    <g id="japan-food_1_" data-name="japan-food(1)" transform="translate(950 575.225)">
      <path id="Path_81" data-name="Path 81" d="M30.02,6.476A3.721,3.721,0,0,0,28.6,4.621a3.718,3.718,0,0,0,1.421-1.855.749.749,0,0,0-.4-.9,4.19,4.19,0,0,0-3.306.156A4.576,4.576,0,0,0,24.443,3.51C21.731,1.732,17.457.686,12.757.686,7.608.686,2.964,1.937.335,4.034a.75.75,0,0,0,0,1.171c2.629,2.1,7.273,3.35,12.422,3.35,4.7,0,8.975-1.046,11.686-2.824a4.579,4.579,0,0,0,1.866,1.491,4.768,4.768,0,0,0,1.932.432,3.3,3.3,0,0,0,1.374-.276.75.75,0,0,0,.405-.9Zm-17.263.582c-4.23,0-8.184-.92-10.65-2.438a17.2,17.2,0,0,1,6-2.054A3.263,3.263,0,0,1,8.42,5.178a.749.749,0,1,0,1.394.55A4.489,4.489,0,0,0,9.665,2.35a28.55,28.55,0,0,1,3.092-.166c4.229,0,8.184.919,10.649,2.437C20.941,6.139,16.986,7.058,12.757,7.058Zm13.97-1.726a3.847,3.847,0,0,1,.366.141,3.381,3.381,0,0,1,1,.679,3.346,3.346,0,0,1-1.171-.3,2.916,2.916,0,0,1-1.411-1.235,2.913,2.913,0,0,1,1.411-1.234,3.366,3.366,0,0,1,1.171-.3,3.348,3.348,0,0,1-.994.677,3.959,3.959,0,0,1-.372.143.749.749,0,0,0,0,1.425Z" transform="translate(-0.053 -0.686)" fill="#fff"/>
      <path id="Path_82" data-name="Path 82" d="M4.025,2.831a.76.76,0,0,0-.222.527.751.751,0,0,0,.222.533.742.742,0,0,0,.527.216A.738.738,0,0,0,5.3,3.359a.752.752,0,0,0-.216-.527.768.768,0,0,0-1.06,0Z" transform="translate(1.822 0.281)" fill="#fff"/>
      <path id="Path_83" data-name="Path 83" d="M30.019,9.326a.749.749,0,0,0-.4-.9,4.192,4.192,0,0,0-3.307.155,4.584,4.584,0,0,0-1.866,1.49c-2.71-1.778-6.985-2.824-11.686-2.824C7.607,7.245,2.963,8.5.335,10.595a.75.75,0,0,0,0,1.172c2.629,2.1,7.273,3.35,12.422,3.35,4.7,0,8.975-1.046,11.686-2.824a4.58,4.58,0,0,0,1.866,1.49,4.764,4.764,0,0,0,1.932.433,3.337,3.337,0,0,0,1.374-.278.749.749,0,0,0,.4-.9,3.714,3.714,0,0,0-1.42-1.855,3.712,3.712,0,0,0,1.42-1.855ZM12.757,13.618c-4.23,0-8.184-.919-10.65-2.438a17.207,17.207,0,0,1,6-2.055,3.263,3.263,0,0,1,.31,2.612.749.749,0,0,0,1.394.551,4.49,4.49,0,0,0-.148-3.379,28.532,28.532,0,0,1,3.092-.166c4.23,0,8.184.919,10.65,2.438C20.942,12.7,16.986,13.618,12.757,13.618Zm13.97-1.725a3.7,3.7,0,0,1,.367.141,3.358,3.358,0,0,1,1,.679,3.339,3.339,0,0,1-1.172-.3,2.919,2.919,0,0,1-1.411-1.234,2.922,2.922,0,0,1,1.411-1.235,3.353,3.353,0,0,1,1.172-.3,3.354,3.354,0,0,1-.994.676,3.784,3.784,0,0,1-.372.143.749.749,0,0,0,0,1.425Z" transform="translate(-0.053 2.594)" fill="#fff"/>
      <path id="Path_84" data-name="Path 84" d="M4.025,9.393a.759.759,0,0,0-.222.526.758.758,0,0,0,.749.749A.748.748,0,0,0,5.3,9.919a.743.743,0,0,0-1.276-.526Z" transform="translate(1.822 3.561)" fill="#fff"/>
      <path id="Path_85" data-name="Path 85" d="M29.615,20.5a.75.75,0,0,0,.405-.9A3.718,3.718,0,0,0,28.6,17.74a3.716,3.716,0,0,0,1.421-1.856.749.749,0,0,0-.4-.9,4.186,4.186,0,0,0-3.306.156,4.586,4.586,0,0,0-1.866,1.489c-2.712-1.777-6.986-2.823-11.686-2.823-5.149,0-9.793,1.251-12.422,3.349a.749.749,0,0,0,0,1.171c2.629,2.1,7.273,3.35,12.422,3.35,4.7,0,8.975-1.046,11.686-2.824a4.576,4.576,0,0,0,1.866,1.491,4.774,4.774,0,0,0,1.932.432,3.283,3.283,0,0,0,1.374-.277Zm-16.858-.319c-4.23,0-8.184-.919-10.65-2.438a17.189,17.189,0,0,1,6-2.053A3.262,3.262,0,0,1,8.42,18.3a.75.75,0,0,0,.422.972.758.758,0,0,0,.275.052.749.749,0,0,0,.7-.474,4.488,4.488,0,0,0-.148-3.378,28.465,28.465,0,0,1,3.092-.166c4.229,0,8.184.919,10.649,2.437-2.466,1.519-6.421,2.437-10.65,2.437Zm13.97-1.725c.124.04.248.089.366.141a3.377,3.377,0,0,1,1,.68,3.361,3.361,0,0,1-1.171-.3,2.916,2.916,0,0,1-1.411-1.235,2.909,2.909,0,0,1,1.411-1.234,3.352,3.352,0,0,1,1.171-.3,3.335,3.335,0,0,1-.994.676,3.871,3.871,0,0,1-.372.143.749.749,0,0,0,0,1.424Z" transform="translate(-0.053 5.874)" fill="#fff"/>
      <path id="Path_86" data-name="Path 86" d="M4.025,15.948a.773.773,0,0,0-.222.532.758.758,0,0,0,.749.75.754.754,0,0,0,.532-1.282.778.778,0,0,0-1.06,0Z" transform="translate(1.822 6.841)" fill="#fff"/>
    </g>
  </g>
</svg>
